%TF.GenerationSoftware,KiCad,Pcbnew,7.0.9*%
%TF.CreationDate,2024-04-25T13:42:10+02:00*%
%TF.ProjectId,UsbLoad,5573624c-6f61-4642-9e6b-696361645f70,rev?*%
%TF.SameCoordinates,Original*%
%TF.FileFunction,Soldermask,Top*%
%TF.FilePolarity,Negative*%
%FSLAX46Y46*%
G04 Gerber Fmt 4.6, Leading zero omitted, Abs format (unit mm)*
G04 Created by KiCad (PCBNEW 7.0.9) date 2024-04-25 13:42:10*
%MOMM*%
%LPD*%
G01*
G04 APERTURE LIST*
G04 Aperture macros list*
%AMRoundRect*
0 Rectangle with rounded corners*
0 $1 Rounding radius*
0 $2 $3 $4 $5 $6 $7 $8 $9 X,Y pos of 4 corners*
0 Add a 4 corners polygon primitive as box body*
4,1,4,$2,$3,$4,$5,$6,$7,$8,$9,$2,$3,0*
0 Add four circle primitives for the rounded corners*
1,1,$1+$1,$2,$3*
1,1,$1+$1,$4,$5*
1,1,$1+$1,$6,$7*
1,1,$1+$1,$8,$9*
0 Add four rect primitives between the rounded corners*
20,1,$1+$1,$2,$3,$4,$5,0*
20,1,$1+$1,$4,$5,$6,$7,0*
20,1,$1+$1,$6,$7,$8,$9,0*
20,1,$1+$1,$8,$9,$2,$3,0*%
G04 Aperture macros list end*
%ADD10RoundRect,0.218750X-0.218750X-0.256250X0.218750X-0.256250X0.218750X0.256250X-0.218750X0.256250X0*%
%ADD11RoundRect,0.200000X-0.200000X-0.275000X0.200000X-0.275000X0.200000X0.275000X-0.200000X0.275000X0*%
%ADD12RoundRect,0.200000X0.200000X0.275000X-0.200000X0.275000X-0.200000X-0.275000X0.200000X-0.275000X0*%
%ADD13RoundRect,0.150000X-0.825000X-0.150000X0.825000X-0.150000X0.825000X0.150000X-0.825000X0.150000X0*%
%ADD14C,1.100000*%
%ADD15O,3.000000X1.500000*%
%ADD16O,3.200000X1.300000*%
%ADD17RoundRect,0.249999X-0.450001X-1.075001X0.450001X-1.075001X0.450001X1.075001X-0.450001X1.075001X0*%
%ADD18R,1.500000X2.000000*%
%ADD19R,3.800000X2.000000*%
%ADD20R,1.700000X1.700000*%
%ADD21O,1.700000X1.700000*%
%ADD22RoundRect,0.218750X0.218750X0.256250X-0.218750X0.256250X-0.218750X-0.256250X0.218750X-0.256250X0*%
%ADD23C,2.100000*%
%ADD24C,1.750000*%
%ADD25R,1.524000X1.524000*%
%ADD26C,1.524000*%
%ADD27C,3.500000*%
G04 APERTURE END LIST*
D10*
%TO.C,D2*%
X84212500Y-51000000D03*
X85787500Y-51000000D03*
%TD*%
D11*
%TO.C,R6*%
X84175000Y-54000000D03*
X85825000Y-54000000D03*
%TD*%
D12*
%TO.C,C1*%
X76825000Y-58000000D03*
X75175000Y-58000000D03*
%TD*%
D11*
%TO.C,R1*%
X74255000Y-67050000D03*
X75905000Y-67050000D03*
%TD*%
D13*
%TO.C,U1*%
X75775000Y-60095000D03*
X75775000Y-61365000D03*
X75775000Y-62635000D03*
X75775000Y-63905000D03*
X80725000Y-63905000D03*
X80725000Y-62635000D03*
X80725000Y-61365000D03*
X80725000Y-60095000D03*
%TD*%
D14*
%TO.C,J1*%
X67685000Y-61500000D03*
X67685000Y-57000000D03*
D15*
X70285000Y-62750000D03*
X70285000Y-60250000D03*
X70285000Y-58250000D03*
X70285000Y-55750000D03*
D16*
X67685000Y-65000000D03*
X67685000Y-53500000D03*
%TD*%
D11*
%TO.C,R5*%
X81175000Y-67000000D03*
X82825000Y-67000000D03*
%TD*%
%TO.C,R2*%
X77685000Y-67050000D03*
X79335000Y-67050000D03*
%TD*%
D17*
%TO.C,R3*%
X88850000Y-61500000D03*
X93650000Y-61500000D03*
%TD*%
D18*
%TO.C,Q1*%
X88700000Y-57650000D03*
X91000000Y-57650000D03*
D19*
X91000000Y-51350000D03*
D18*
X93300000Y-57650000D03*
%TD*%
D20*
%TO.C,J3*%
X84775000Y-59210000D03*
D21*
X84775000Y-61750000D03*
X84775000Y-64290000D03*
%TD*%
D22*
%TO.C,D1*%
X94287500Y-66000000D03*
X92712500Y-66000000D03*
%TD*%
D23*
%TO.C,SW1*%
X74225000Y-53702500D03*
X81235000Y-53702500D03*
D24*
X75475000Y-51212500D03*
X79975000Y-51212500D03*
%TD*%
D11*
%TO.C,R4*%
X88925000Y-66000000D03*
X90575000Y-66000000D03*
%TD*%
D25*
%TO.C,J2*%
X99022500Y-62750000D03*
D26*
X99022500Y-60250000D03*
X99022500Y-58250000D03*
X99022500Y-55750000D03*
D27*
X101732500Y-65820000D03*
X101732500Y-52680000D03*
%TD*%
M02*
