%TF.GenerationSoftware,KiCad,Pcbnew,7.0.9*%
%TF.CreationDate,2024-04-25T13:42:10+02:00*%
%TF.ProjectId,UsbLoad,5573624c-6f61-4642-9e6b-696361645f70,rev?*%
%TF.SameCoordinates,Original*%
%TF.FileFunction,Copper,L2,Bot*%
%TF.FilePolarity,Positive*%
%FSLAX46Y46*%
G04 Gerber Fmt 4.6, Leading zero omitted, Abs format (unit mm)*
G04 Created by KiCad (PCBNEW 7.0.9) date 2024-04-25 13:42:10*
%MOMM*%
%LPD*%
G01*
G04 APERTURE LIST*
%TA.AperFunction,ComponentPad*%
%ADD10O,3.000000X1.500000*%
%TD*%
%TA.AperFunction,ComponentPad*%
%ADD11O,3.200000X1.300000*%
%TD*%
%TA.AperFunction,ComponentPad*%
%ADD12R,1.700000X1.700000*%
%TD*%
%TA.AperFunction,ComponentPad*%
%ADD13O,1.700000X1.700000*%
%TD*%
%TA.AperFunction,ComponentPad*%
%ADD14C,2.100000*%
%TD*%
%TA.AperFunction,ComponentPad*%
%ADD15C,1.750000*%
%TD*%
%TA.AperFunction,ComponentPad*%
%ADD16R,1.524000X1.524000*%
%TD*%
%TA.AperFunction,ComponentPad*%
%ADD17C,1.524000*%
%TD*%
%TA.AperFunction,ComponentPad*%
%ADD18C,3.500000*%
%TD*%
%TA.AperFunction,ViaPad*%
%ADD19C,0.800000*%
%TD*%
%TA.AperFunction,Conductor*%
%ADD20C,0.500000*%
%TD*%
G04 APERTURE END LIST*
D10*
%TO.P,J1,1,VBUS*%
%TO.N,VCC*%
X70285000Y-62750000D03*
%TO.P,J1,2,D-*%
%TO.N,unconnected-(J1-D--Pad2)*%
X70285000Y-60250000D03*
%TO.P,J1,3,D+*%
%TO.N,unconnected-(J1-D+-Pad3)*%
X70285000Y-58250000D03*
%TO.P,J1,4,GND*%
%TO.N,GND*%
X70285000Y-55750000D03*
D11*
%TO.P,J1,5,Shield*%
X67685000Y-65000000D03*
X67685000Y-53500000D03*
%TD*%
D12*
%TO.P,J3,1,Pin_1*%
%TO.N,VCC*%
X84775000Y-59210000D03*
D13*
%TO.P,J3,2,Pin_2*%
%TO.N,Net-(J3-Pin_2)*%
X84775000Y-61750000D03*
%TO.P,J3,3,Pin_3*%
%TO.N,GND*%
X84775000Y-64290000D03*
%TD*%
D14*
%TO.P,SW1,*%
%TO.N,*%
X74225000Y-53702500D03*
X81235000Y-53702500D03*
D15*
%TO.P,SW1,1,1*%
%TO.N,Net-(U1-PA6)*%
X75475000Y-51212500D03*
%TO.P,SW1,2,2*%
%TO.N,GND*%
X79975000Y-51212500D03*
%TD*%
D16*
%TO.P,J2,1,VBUS*%
%TO.N,VCC*%
X99022500Y-62750000D03*
D17*
%TO.P,J2,2,D-*%
%TO.N,unconnected-(J2-D--Pad2)*%
X99022500Y-60250000D03*
%TO.P,J2,3,D+*%
%TO.N,unconnected-(J2-D+-Pad3)*%
X99022500Y-58250000D03*
%TO.P,J2,4,GND*%
%TO.N,GND*%
X99022500Y-55750000D03*
D18*
%TO.P,J2,5,Shield*%
X101732500Y-65820000D03*
X101732500Y-52680000D03*
%TD*%
D19*
%TO.N,GND*%
X79250000Y-65250000D03*
X82500000Y-58750000D03*
%TO.N,Net-(U1-PA7)*%
X83750000Y-55750000D03*
X77750000Y-62250000D03*
%TD*%
D20*
%TO.N,Net-(U1-PA7)*%
X77750000Y-60750000D02*
X77750000Y-62250000D01*
X82750000Y-55750000D02*
X77750000Y-60750000D01*
X83750000Y-55750000D02*
X82750000Y-55750000D01*
%TD*%
%TA.AperFunction,Conductor*%
%TO.N,GND*%
G36*
X111986843Y-48670207D02*
G01*
X112056084Y-48725426D01*
X112094511Y-48805218D01*
X112099500Y-48849500D01*
X112099500Y-69400500D01*
X112079793Y-69486843D01*
X112024574Y-69556084D01*
X111944782Y-69594511D01*
X111900500Y-69599500D01*
X65599500Y-69599500D01*
X65513157Y-69579793D01*
X65443916Y-69524574D01*
X65405489Y-69444782D01*
X65400500Y-69400500D01*
X65400500Y-65728638D01*
X65420207Y-65642295D01*
X65475426Y-65573054D01*
X65555218Y-65534627D01*
X65643782Y-65534627D01*
X65723574Y-65573054D01*
X65768694Y-65623879D01*
X65813348Y-65696000D01*
X65813352Y-65696004D01*
X65956929Y-65853499D01*
X65956934Y-65853504D01*
X66127008Y-65981939D01*
X66317792Y-66076937D01*
X66317794Y-66076938D01*
X66522776Y-66135260D01*
X66522787Y-66135262D01*
X66681832Y-66150000D01*
X67435000Y-66150000D01*
X67435000Y-65350000D01*
X67935000Y-65350000D01*
X67935000Y-66150000D01*
X68688168Y-66150000D01*
X68847212Y-66135262D01*
X68847223Y-66135260D01*
X69052205Y-66076938D01*
X69052207Y-66076937D01*
X69242991Y-65981939D01*
X69413065Y-65853504D01*
X69413070Y-65853499D01*
X69556647Y-65696004D01*
X69556653Y-65695997D01*
X69668845Y-65514799D01*
X69668846Y-65514796D01*
X69745837Y-65316060D01*
X69758187Y-65250000D01*
X68830581Y-65250000D01*
X68882060Y-65194079D01*
X68928982Y-65087108D01*
X68938628Y-64970698D01*
X68909953Y-64857462D01*
X68846064Y-64759673D01*
X68833636Y-64750000D01*
X69758186Y-64750000D01*
X69745837Y-64683939D01*
X69668846Y-64485203D01*
X69668847Y-64485203D01*
X69556812Y-64304259D01*
X69528114Y-64220474D01*
X69538611Y-64132535D01*
X69586224Y-64057859D01*
X69661522Y-64011237D01*
X69726006Y-64000500D01*
X71091153Y-64000500D01*
X71091155Y-64000500D01*
X71259188Y-63985377D01*
X71476170Y-63925493D01*
X71678973Y-63827829D01*
X71861078Y-63695522D01*
X72016632Y-63532825D01*
X72140635Y-63344968D01*
X72229103Y-63137988D01*
X72279191Y-62918537D01*
X72289290Y-62693670D01*
X72259075Y-62470613D01*
X72189517Y-62256536D01*
X72189515Y-62256532D01*
X72189514Y-62256529D01*
X72186001Y-62250000D01*
X76844540Y-62250000D01*
X76864325Y-62438255D01*
X76922822Y-62618287D01*
X77017463Y-62782211D01*
X77017466Y-62782215D01*
X77144128Y-62922887D01*
X77144134Y-62922892D01*
X77297263Y-63034147D01*
X77297270Y-63034151D01*
X77470192Y-63111142D01*
X77470194Y-63111142D01*
X77470197Y-63111144D01*
X77470199Y-63111144D01*
X77470204Y-63111146D01*
X77655349Y-63150499D01*
X77655352Y-63150500D01*
X77655354Y-63150500D01*
X77844648Y-63150500D01*
X77844649Y-63150499D01*
X77906365Y-63137381D01*
X78029795Y-63111146D01*
X78029797Y-63111145D01*
X78029803Y-63111144D01*
X78202730Y-63034151D01*
X78209278Y-63029394D01*
X78354292Y-62924035D01*
X78355871Y-62922888D01*
X78482533Y-62782216D01*
X78577179Y-62618284D01*
X78635674Y-62438256D01*
X78655460Y-62250000D01*
X78635674Y-62061744D01*
X78577179Y-61881716D01*
X78527160Y-61795081D01*
X78513254Y-61750000D01*
X83419341Y-61750000D01*
X83435975Y-61940128D01*
X83439938Y-61985414D01*
X83501095Y-62213659D01*
X83501095Y-62213660D01*
X83600964Y-62427829D01*
X83600966Y-62427833D01*
X83736506Y-62621403D01*
X83903600Y-62788497D01*
X84001853Y-62857294D01*
X84061278Y-62922961D01*
X84086326Y-63007908D01*
X84072035Y-63095311D01*
X84021238Y-63167858D01*
X84001855Y-63183316D01*
X83903917Y-63251893D01*
X83736891Y-63418919D01*
X83601401Y-63612418D01*
X83601399Y-63612422D01*
X83501570Y-63826504D01*
X83501569Y-63826507D01*
X83444363Y-64040000D01*
X84341314Y-64040000D01*
X84315507Y-64080156D01*
X84275000Y-64218111D01*
X84275000Y-64361889D01*
X84315507Y-64499844D01*
X84341314Y-64540000D01*
X83444364Y-64540000D01*
X83501569Y-64753492D01*
X83501571Y-64753495D01*
X83601399Y-64967578D01*
X83601401Y-64967582D01*
X83736890Y-65161079D01*
X83903920Y-65328109D01*
X84097417Y-65463598D01*
X84097420Y-65463600D01*
X84311509Y-65563430D01*
X84525000Y-65620634D01*
X84525000Y-64725501D01*
X84632685Y-64774680D01*
X84739237Y-64790000D01*
X84810763Y-64790000D01*
X84917315Y-64774680D01*
X85025000Y-64725501D01*
X85025000Y-65620634D01*
X85238490Y-65563430D01*
X85452579Y-65463600D01*
X85452582Y-65463598D01*
X85646079Y-65328109D01*
X85813109Y-65161079D01*
X85948598Y-64967582D01*
X85948600Y-64967578D01*
X86048428Y-64753495D01*
X86048430Y-64753492D01*
X86105636Y-64540000D01*
X85208686Y-64540000D01*
X85234493Y-64499844D01*
X85275000Y-64361889D01*
X85275000Y-64218111D01*
X85234493Y-64080156D01*
X85208686Y-64040000D01*
X86105636Y-64040000D01*
X86048430Y-63826507D01*
X86048429Y-63826504D01*
X85948600Y-63612422D01*
X85948598Y-63612418D01*
X85813108Y-63418919D01*
X85646080Y-63251891D01*
X85548145Y-63183316D01*
X85488721Y-63117649D01*
X85463673Y-63032701D01*
X85477964Y-62945298D01*
X85528762Y-62872751D01*
X85548136Y-62857300D01*
X85646401Y-62788495D01*
X85813495Y-62621401D01*
X85949035Y-62427830D01*
X86048903Y-62213663D01*
X86110063Y-61985408D01*
X86130659Y-61750000D01*
X86110063Y-61514592D01*
X86086189Y-61425493D01*
X86048905Y-61286342D01*
X86018354Y-61220826D01*
X85949035Y-61072171D01*
X85817040Y-60883662D01*
X85813498Y-60878603D01*
X85813497Y-60878601D01*
X85813495Y-60878599D01*
X85774089Y-60839193D01*
X85726971Y-60764206D01*
X85717055Y-60676199D01*
X85746306Y-60592606D01*
X85808930Y-60529982D01*
X85845252Y-60512030D01*
X85867331Y-60503796D01*
X85982546Y-60417546D01*
X86068796Y-60302331D01*
X86088314Y-60250000D01*
X97755177Y-60250000D01*
X97774429Y-60470066D01*
X97831606Y-60683450D01*
X97924965Y-60883661D01*
X97924971Y-60883670D01*
X98051671Y-61064618D01*
X98172917Y-61185864D01*
X98220036Y-61260852D01*
X98229952Y-61348859D01*
X98200701Y-61432452D01*
X98138077Y-61495076D01*
X98101748Y-61513031D01*
X98018166Y-61544205D01*
X98018164Y-61544207D01*
X97902953Y-61630453D01*
X97816707Y-61745664D01*
X97816704Y-61745669D01*
X97766409Y-61880517D01*
X97760000Y-61940127D01*
X97760000Y-61940128D01*
X97760000Y-61940132D01*
X97760000Y-63559876D01*
X97766408Y-63619481D01*
X97816703Y-63754329D01*
X97816707Y-63754335D01*
X97902953Y-63869546D01*
X97972864Y-63921881D01*
X98018169Y-63955796D01*
X98153017Y-64006091D01*
X98212627Y-64012500D01*
X99832372Y-64012499D01*
X99832375Y-64012499D01*
X99868952Y-64008567D01*
X99956907Y-64018933D01*
X100031654Y-64066434D01*
X100078388Y-64141662D01*
X100087854Y-64229718D01*
X100058177Y-64313161D01*
X100039838Y-64337637D01*
X99943628Y-64447342D01*
X99943626Y-64447346D01*
X99779767Y-64692577D01*
X99649309Y-64957118D01*
X99554504Y-65236404D01*
X99554501Y-65236413D01*
X99496962Y-65525683D01*
X99496961Y-65525687D01*
X99477672Y-65820000D01*
X99496961Y-66114312D01*
X99496962Y-66114316D01*
X99554501Y-66403586D01*
X99554504Y-66403595D01*
X99649309Y-66682881D01*
X99779767Y-66947422D01*
X99943624Y-67192652D01*
X99972906Y-67226040D01*
X100761938Y-66437007D01*
X100810848Y-66515999D01*
X100954431Y-66673501D01*
X101112888Y-66793163D01*
X100326458Y-67579592D01*
X100359852Y-67608878D01*
X100605077Y-67772732D01*
X100869618Y-67903190D01*
X101148904Y-67997995D01*
X101148913Y-67997998D01*
X101438183Y-68055537D01*
X101438187Y-68055538D01*
X101732500Y-68074827D01*
X102026812Y-68055538D01*
X102026816Y-68055537D01*
X102316086Y-67997998D01*
X102316095Y-67997995D01*
X102595381Y-67903190D01*
X102859922Y-67772732D01*
X103105153Y-67608873D01*
X103105157Y-67608870D01*
X103138539Y-67579593D01*
X103138539Y-67579592D01*
X102352111Y-66793163D01*
X102510569Y-66673501D01*
X102654152Y-66515999D01*
X102703060Y-66437007D01*
X103492092Y-67226039D01*
X103492093Y-67226039D01*
X103521370Y-67192657D01*
X103521373Y-67192653D01*
X103685232Y-66947422D01*
X103815690Y-66682881D01*
X103910495Y-66403595D01*
X103910498Y-66403586D01*
X103968037Y-66114316D01*
X103968038Y-66114312D01*
X103987327Y-65820000D01*
X103968038Y-65525687D01*
X103968037Y-65525683D01*
X103910498Y-65236413D01*
X103910495Y-65236404D01*
X103815690Y-64957118D01*
X103685232Y-64692577D01*
X103521378Y-64447352D01*
X103492092Y-64413958D01*
X102703060Y-65202990D01*
X102654152Y-65124001D01*
X102510569Y-64966499D01*
X102352110Y-64846835D01*
X103138540Y-64060406D01*
X103105152Y-64031124D01*
X102859922Y-63867267D01*
X102595381Y-63736809D01*
X102316095Y-63642004D01*
X102316086Y-63642001D01*
X102026816Y-63584462D01*
X102026812Y-63584461D01*
X101732500Y-63565172D01*
X101438187Y-63584461D01*
X101438183Y-63584462D01*
X101148913Y-63642001D01*
X101148904Y-63642004D01*
X100869618Y-63736809D01*
X100605079Y-63867266D01*
X100559469Y-63897742D01*
X100476729Y-63929325D01*
X100388479Y-63921881D01*
X100312198Y-63876884D01*
X100262995Y-63803246D01*
X100250615Y-63715553D01*
X100262456Y-63662740D01*
X100278591Y-63619483D01*
X100285000Y-63559873D01*
X100284999Y-61940128D01*
X100284999Y-61940127D01*
X100284999Y-61940123D01*
X100279362Y-61887691D01*
X100278591Y-61880517D01*
X100228296Y-61745669D01*
X100190801Y-61695582D01*
X100142046Y-61630453D01*
X100026835Y-61544207D01*
X100026831Y-61544204D01*
X99943252Y-61513031D01*
X99869240Y-61464392D01*
X99823661Y-61388458D01*
X99815543Y-61300267D01*
X99846493Y-61217288D01*
X99872077Y-61185868D01*
X99993326Y-61064620D01*
X99998695Y-61056953D01*
X100063249Y-60964759D01*
X100120034Y-60883662D01*
X100213394Y-60683450D01*
X100270570Y-60470068D01*
X100289823Y-60250000D01*
X100270570Y-60029932D01*
X100213394Y-59816550D01*
X100120034Y-59616339D01*
X99993326Y-59435380D01*
X99948659Y-59390713D01*
X99901541Y-59315726D01*
X99891625Y-59227719D01*
X99920876Y-59144126D01*
X99948657Y-59109288D01*
X99993326Y-59064620D01*
X100120034Y-58883662D01*
X100213394Y-58683450D01*
X100270570Y-58470068D01*
X100289823Y-58250000D01*
X100270570Y-58029932D01*
X100213394Y-57816550D01*
X100120034Y-57616339D01*
X99993326Y-57435380D01*
X99837120Y-57279174D01*
X99837119Y-57279173D01*
X99837116Y-57279170D01*
X99670786Y-57162705D01*
X99611361Y-57097038D01*
X99586313Y-57012091D01*
X99600604Y-56924688D01*
X99651401Y-56852141D01*
X99670784Y-56836684D01*
X99720686Y-56801740D01*
X99720687Y-56801739D01*
X99119520Y-56200572D01*
X99159619Y-56194529D01*
X99284554Y-56134363D01*
X99386205Y-56040045D01*
X99455539Y-55919955D01*
X99472350Y-55846297D01*
X100074239Y-56448187D01*
X100074240Y-56448186D01*
X100119598Y-56383411D01*
X100212922Y-56183276D01*
X100270073Y-55969987D01*
X100270074Y-55969983D01*
X100289320Y-55750000D01*
X100270074Y-55530016D01*
X100270073Y-55530012D01*
X100212921Y-55316720D01*
X100212919Y-55316717D01*
X100119599Y-55116591D01*
X100119597Y-55116587D01*
X100074240Y-55051812D01*
X99476279Y-55649773D01*
X99476033Y-55646484D01*
X99425372Y-55517402D01*
X99338914Y-55408987D01*
X99224341Y-55330873D01*
X99120197Y-55298749D01*
X99720686Y-54698258D01*
X99720686Y-54698257D01*
X99655911Y-54652901D01*
X99455778Y-54559578D01*
X99242487Y-54502426D01*
X99242483Y-54502425D01*
X99022500Y-54483179D01*
X98802516Y-54502425D01*
X98802512Y-54502426D01*
X98589220Y-54559578D01*
X98589216Y-54559580D01*
X98389092Y-54652899D01*
X98389087Y-54652901D01*
X98324312Y-54698256D01*
X98324312Y-54698259D01*
X98925480Y-55299427D01*
X98885381Y-55305471D01*
X98760446Y-55365637D01*
X98658795Y-55459955D01*
X98589461Y-55580045D01*
X98572649Y-55653702D01*
X97970759Y-55051812D01*
X97970756Y-55051812D01*
X97925401Y-55116587D01*
X97925399Y-55116592D01*
X97832080Y-55316716D01*
X97832078Y-55316720D01*
X97774926Y-55530012D01*
X97774925Y-55530016D01*
X97755679Y-55750000D01*
X97774925Y-55969983D01*
X97774926Y-55969987D01*
X97832078Y-56183278D01*
X97925401Y-56383411D01*
X97970758Y-56448186D01*
X98568720Y-55850225D01*
X98568967Y-55853516D01*
X98619628Y-55982598D01*
X98706086Y-56091013D01*
X98820659Y-56169127D01*
X98924801Y-56201250D01*
X98324312Y-56801740D01*
X98374215Y-56836683D01*
X98433639Y-56902350D01*
X98458687Y-56987298D01*
X98444396Y-57074700D01*
X98393598Y-57147247D01*
X98374214Y-57162705D01*
X98207892Y-57279164D01*
X98207876Y-57279177D01*
X98051677Y-57435376D01*
X98051670Y-57435384D01*
X97924966Y-57616338D01*
X97924965Y-57616340D01*
X97831607Y-57816545D01*
X97831606Y-57816548D01*
X97774429Y-58029933D01*
X97755177Y-58250000D01*
X97774429Y-58470066D01*
X97831606Y-58683450D01*
X97924965Y-58883661D01*
X97924971Y-58883670D01*
X98051671Y-59064618D01*
X98096339Y-59109286D01*
X98143458Y-59184274D01*
X98153374Y-59272281D01*
X98124123Y-59355874D01*
X98096341Y-59390713D01*
X98051670Y-59435384D01*
X97924966Y-59616338D01*
X97924965Y-59616340D01*
X97831607Y-59816545D01*
X97831606Y-59816548D01*
X97774429Y-60029933D01*
X97755177Y-60250000D01*
X86088314Y-60250000D01*
X86119091Y-60167483D01*
X86125500Y-60107873D01*
X86125499Y-58312128D01*
X86125499Y-58312127D01*
X86125499Y-58312123D01*
X86119091Y-58252518D01*
X86097143Y-58193670D01*
X86068796Y-58117669D01*
X86003117Y-58029933D01*
X85982546Y-58002453D01*
X85867335Y-57916207D01*
X85867331Y-57916204D01*
X85732483Y-57865909D01*
X85672873Y-57859500D01*
X85672867Y-57859500D01*
X83877123Y-57859500D01*
X83817518Y-57865908D01*
X83682670Y-57916203D01*
X83682664Y-57916207D01*
X83567453Y-58002453D01*
X83481207Y-58117664D01*
X83481204Y-58117669D01*
X83430909Y-58252517D01*
X83424500Y-58312127D01*
X83424500Y-58312128D01*
X83424500Y-58312132D01*
X83424500Y-60107876D01*
X83430908Y-60167481D01*
X83481203Y-60302329D01*
X83481207Y-60302335D01*
X83567453Y-60417546D01*
X83637614Y-60470068D01*
X83682669Y-60503796D01*
X83704738Y-60512027D01*
X83778750Y-60560665D01*
X83824329Y-60636600D01*
X83832448Y-60724790D01*
X83801498Y-60807769D01*
X83775911Y-60839193D01*
X83736501Y-60878603D01*
X83600965Y-61072171D01*
X83501094Y-61286342D01*
X83439938Y-61514585D01*
X83439937Y-61514589D01*
X83439937Y-61514592D01*
X83419341Y-61750000D01*
X78513254Y-61750000D01*
X78501056Y-61710454D01*
X78500500Y-61695582D01*
X78500500Y-61143296D01*
X78520207Y-61056953D01*
X78558786Y-61002582D01*
X83002582Y-56558786D01*
X83077570Y-56511667D01*
X83143296Y-56500500D01*
X83186294Y-56500500D01*
X83272637Y-56520207D01*
X83287978Y-56529374D01*
X83288233Y-56528934D01*
X83297270Y-56534151D01*
X83470192Y-56611142D01*
X83470194Y-56611142D01*
X83470197Y-56611144D01*
X83470199Y-56611144D01*
X83470204Y-56611146D01*
X83655349Y-56650499D01*
X83655352Y-56650500D01*
X83655354Y-56650500D01*
X83844648Y-56650500D01*
X83844649Y-56650499D01*
X83906365Y-56637381D01*
X84029795Y-56611146D01*
X84029797Y-56611145D01*
X84029803Y-56611144D01*
X84202730Y-56534151D01*
X84204999Y-56532503D01*
X84297599Y-56465225D01*
X84355871Y-56422888D01*
X84482533Y-56282216D01*
X84577179Y-56118284D01*
X84635674Y-55938256D01*
X84655460Y-55750000D01*
X84635674Y-55561744D01*
X84577179Y-55381716D01*
X84539652Y-55316717D01*
X84482536Y-55217788D01*
X84482533Y-55217784D01*
X84355871Y-55077112D01*
X84355865Y-55077107D01*
X84202736Y-54965852D01*
X84202729Y-54965848D01*
X84029807Y-54888857D01*
X84029795Y-54888853D01*
X83844650Y-54849500D01*
X83844646Y-54849500D01*
X83655354Y-54849500D01*
X83655349Y-54849500D01*
X83470204Y-54888853D01*
X83470192Y-54888857D01*
X83297270Y-54965848D01*
X83288233Y-54971066D01*
X83286774Y-54968539D01*
X83221844Y-54996299D01*
X83186294Y-54999500D01*
X82819170Y-54999500D01*
X82790328Y-54997399D01*
X82771977Y-54994710D01*
X82721563Y-54999121D01*
X82712888Y-54999500D01*
X82706283Y-54999500D01*
X82673723Y-55003306D01*
X82606378Y-55009198D01*
X82518646Y-54997091D01*
X82444856Y-54948118D01*
X82399621Y-54871978D01*
X82391902Y-54783751D01*
X82423228Y-54700913D01*
X82437714Y-54681714D01*
X82447969Y-54669707D01*
X82493259Y-54616679D01*
X82620777Y-54408589D01*
X82647000Y-54345282D01*
X82714169Y-54183119D01*
X82714168Y-54183119D01*
X82714172Y-54183112D01*
X82771146Y-53945802D01*
X82790294Y-53702500D01*
X82771146Y-53459198D01*
X82714172Y-53221888D01*
X82702950Y-53194795D01*
X82620778Y-52996412D01*
X82620775Y-52996407D01*
X82502864Y-52803995D01*
X82493259Y-52788321D01*
X82493258Y-52788320D01*
X82493257Y-52788318D01*
X82400745Y-52680000D01*
X99477672Y-52680000D01*
X99496961Y-52974312D01*
X99496962Y-52974316D01*
X99554501Y-53263586D01*
X99554504Y-53263595D01*
X99649309Y-53542881D01*
X99779767Y-53807422D01*
X99943624Y-54052652D01*
X99972906Y-54086040D01*
X100761938Y-53297007D01*
X100810848Y-53375999D01*
X100954431Y-53533501D01*
X101112888Y-53653163D01*
X100326458Y-54439592D01*
X100359852Y-54468878D01*
X100605077Y-54632732D01*
X100869618Y-54763190D01*
X101148904Y-54857995D01*
X101148913Y-54857998D01*
X101438183Y-54915537D01*
X101438187Y-54915538D01*
X101732500Y-54934827D01*
X102026812Y-54915538D01*
X102026816Y-54915537D01*
X102316086Y-54857998D01*
X102316095Y-54857995D01*
X102595381Y-54763190D01*
X102859922Y-54632732D01*
X103105153Y-54468873D01*
X103105157Y-54468870D01*
X103138539Y-54439593D01*
X103138539Y-54439592D01*
X102352111Y-53653163D01*
X102510569Y-53533501D01*
X102654152Y-53375999D01*
X102703060Y-53297007D01*
X103492092Y-54086039D01*
X103492093Y-54086039D01*
X103521370Y-54052657D01*
X103521373Y-54052653D01*
X103685232Y-53807422D01*
X103815690Y-53542881D01*
X103910495Y-53263595D01*
X103910498Y-53263586D01*
X103968037Y-52974316D01*
X103968038Y-52974312D01*
X103987327Y-52680000D01*
X103968038Y-52385687D01*
X103968037Y-52385683D01*
X103910498Y-52096413D01*
X103910495Y-52096404D01*
X103815690Y-51817118D01*
X103685232Y-51552577D01*
X103521378Y-51307352D01*
X103492092Y-51273958D01*
X102703060Y-52062990D01*
X102654152Y-51984001D01*
X102510569Y-51826499D01*
X102352111Y-51706836D01*
X103138540Y-50920406D01*
X103105152Y-50891124D01*
X102859922Y-50727267D01*
X102595381Y-50596809D01*
X102316095Y-50502004D01*
X102316086Y-50502001D01*
X102026816Y-50444462D01*
X102026812Y-50444461D01*
X101732500Y-50425172D01*
X101438187Y-50444461D01*
X101438183Y-50444462D01*
X101148913Y-50502001D01*
X101148904Y-50502004D01*
X100869618Y-50596809D01*
X100605077Y-50727267D01*
X100359851Y-50891122D01*
X100359846Y-50891126D01*
X100326459Y-50920406D01*
X101112889Y-51706836D01*
X100954431Y-51826499D01*
X100810848Y-51984001D01*
X100761939Y-52062992D01*
X99972906Y-51273959D01*
X99943626Y-51307346D01*
X99943622Y-51307351D01*
X99779767Y-51552577D01*
X99649309Y-51817118D01*
X99554504Y-52096404D01*
X99554501Y-52096413D01*
X99496962Y-52385683D01*
X99496961Y-52385687D01*
X99477672Y-52680000D01*
X82400745Y-52680000D01*
X82334759Y-52602740D01*
X82149181Y-52444242D01*
X81941092Y-52316724D01*
X81941087Y-52316721D01*
X81715619Y-52223330D01*
X81715612Y-52223328D01*
X81715604Y-52223326D01*
X81478308Y-52166355D01*
X81478305Y-52166354D01*
X81478302Y-52166354D01*
X81351031Y-52156337D01*
X81266502Y-52129917D01*
X81201806Y-52069436D01*
X81169759Y-51986874D01*
X81176708Y-51898584D01*
X81185815Y-51877015D01*
X81185114Y-51876708D01*
X81279954Y-51660494D01*
X81335896Y-51439585D01*
X81354712Y-51212503D01*
X81354712Y-51212496D01*
X81335896Y-50985414D01*
X81279954Y-50764505D01*
X81188422Y-50555834D01*
X81108124Y-50432927D01*
X80454048Y-51087003D01*
X80429898Y-51004755D01*
X80352943Y-50885011D01*
X80245369Y-50791798D01*
X80115892Y-50732667D01*
X80103116Y-50730830D01*
X80755983Y-50077963D01*
X80755983Y-50077962D01*
X80729632Y-50057452D01*
X80529223Y-49948997D01*
X80313699Y-49875007D01*
X80088939Y-49837500D01*
X79861060Y-49837500D01*
X79636300Y-49875007D01*
X79420771Y-49948998D01*
X79220370Y-50057449D01*
X79220362Y-50057455D01*
X79194016Y-50077961D01*
X79194015Y-50077962D01*
X79846883Y-50730830D01*
X79834108Y-50732667D01*
X79704631Y-50791798D01*
X79597057Y-50885011D01*
X79520102Y-51004755D01*
X79495951Y-51087005D01*
X78841874Y-50432928D01*
X78841873Y-50432928D01*
X78761579Y-50555829D01*
X78670045Y-50764505D01*
X78614103Y-50985414D01*
X78595288Y-51212496D01*
X78595288Y-51212503D01*
X78614103Y-51439585D01*
X78670045Y-51660494D01*
X78761577Y-51869166D01*
X78841874Y-51992071D01*
X79495951Y-51337994D01*
X79520102Y-51420245D01*
X79597057Y-51539989D01*
X79704631Y-51633202D01*
X79834108Y-51692333D01*
X79846882Y-51694169D01*
X79194015Y-52347036D01*
X79220367Y-52367547D01*
X79420776Y-52476002D01*
X79636300Y-52549992D01*
X79786506Y-52575058D01*
X79868427Y-52608708D01*
X79927636Y-52674571D01*
X79952404Y-52759600D01*
X79937827Y-52846955D01*
X79923426Y-52875321D01*
X79849227Y-52996401D01*
X79849221Y-52996412D01*
X79755830Y-53221880D01*
X79755826Y-53221895D01*
X79698854Y-53459192D01*
X79679706Y-53702500D01*
X79698854Y-53945807D01*
X79755826Y-54183104D01*
X79755830Y-54183119D01*
X79849221Y-54408587D01*
X79849224Y-54408592D01*
X79976742Y-54616681D01*
X80135240Y-54802259D01*
X80320818Y-54960757D01*
X80320820Y-54960758D01*
X80320821Y-54960759D01*
X80375690Y-54994383D01*
X80528907Y-55088275D01*
X80528912Y-55088278D01*
X80754380Y-55181669D01*
X80754382Y-55181669D01*
X80754388Y-55181672D01*
X80898452Y-55216259D01*
X80991692Y-55238645D01*
X80991694Y-55238645D01*
X80991698Y-55238646D01*
X81235000Y-55257794D01*
X81478302Y-55238646D01*
X81478305Y-55238645D01*
X81478307Y-55238645D01*
X81520728Y-55228460D01*
X81715612Y-55181672D01*
X81715629Y-55181664D01*
X81723046Y-55179256D01*
X81723412Y-55180384D01*
X81802762Y-55166896D01*
X81887866Y-55191407D01*
X81953907Y-55250416D01*
X81987805Y-55332236D01*
X81982846Y-55420660D01*
X81940012Y-55498176D01*
X81932333Y-55506298D01*
X77268223Y-60170407D01*
X77246351Y-60189310D01*
X77231470Y-60200389D01*
X77198942Y-60239153D01*
X77193083Y-60245548D01*
X77188408Y-60250223D01*
X77168059Y-60275959D01*
X77118700Y-60334782D01*
X77112660Y-60343966D01*
X77106889Y-60353322D01*
X77074424Y-60422942D01*
X77039960Y-60491565D01*
X77036191Y-60501921D01*
X77032743Y-60512324D01*
X77017207Y-60587565D01*
X76999500Y-60662274D01*
X76998221Y-60673221D01*
X76997266Y-60684142D01*
X76999500Y-60760916D01*
X76999500Y-61695582D01*
X76979793Y-61781925D01*
X76972839Y-61795082D01*
X76922822Y-61881713D01*
X76864325Y-62061744D01*
X76844540Y-62249999D01*
X76844540Y-62250000D01*
X72186001Y-62250000D01*
X72107595Y-62104299D01*
X72082852Y-62058319D01*
X71988601Y-61940132D01*
X71942510Y-61882336D01*
X71941800Y-61881716D01*
X71883247Y-61830559D01*
X71772997Y-61734235D01*
X71772989Y-61734230D01*
X71671803Y-61673774D01*
X71607790Y-61612571D01*
X71576671Y-61529655D01*
X71584610Y-61441448D01*
X71630034Y-61365421D01*
X71671817Y-61332103D01*
X71678962Y-61327834D01*
X71678973Y-61327829D01*
X71861078Y-61195522D01*
X72016632Y-61032825D01*
X72140635Y-60844968D01*
X72229103Y-60637988D01*
X72279191Y-60418537D01*
X72289290Y-60193670D01*
X72259075Y-59970613D01*
X72189517Y-59756536D01*
X72189515Y-59756532D01*
X72189514Y-59756529D01*
X72114073Y-59616338D01*
X72082852Y-59558319D01*
X72010166Y-59467174D01*
X71936936Y-59375346D01*
X71938255Y-59374294D01*
X71898549Y-59307845D01*
X71890607Y-59219639D01*
X71921722Y-59136721D01*
X71943969Y-59108824D01*
X72016632Y-59032825D01*
X72140635Y-58844968D01*
X72229103Y-58637988D01*
X72279191Y-58418537D01*
X72289290Y-58193670D01*
X72259075Y-57970613D01*
X72189517Y-57756536D01*
X72189515Y-57756532D01*
X72189514Y-57756529D01*
X72107595Y-57604299D01*
X72082852Y-57558319D01*
X71942508Y-57382334D01*
X71883247Y-57330559D01*
X71772997Y-57234235D01*
X71772992Y-57234232D01*
X71671314Y-57173483D01*
X71607300Y-57112280D01*
X71576181Y-57029364D01*
X71584120Y-56941157D01*
X71629543Y-56865130D01*
X71671324Y-56831813D01*
X71678719Y-56827394D01*
X71860748Y-56695142D01*
X72016233Y-56532518D01*
X72016245Y-56532503D01*
X72140193Y-56344728D01*
X72140194Y-56344727D01*
X72228623Y-56137836D01*
X72260083Y-56000000D01*
X70718686Y-56000000D01*
X70744493Y-55959844D01*
X70785000Y-55821889D01*
X70785000Y-55678111D01*
X70744493Y-55540156D01*
X70718686Y-55500000D01*
X72262550Y-55500000D01*
X72262550Y-55499999D01*
X72258584Y-55470720D01*
X72189057Y-55256736D01*
X72082430Y-55058592D01*
X71942148Y-54882683D01*
X71772700Y-54734642D01*
X71579548Y-54619238D01*
X71368888Y-54540176D01*
X71147503Y-54500000D01*
X70535000Y-54500000D01*
X70535000Y-55314498D01*
X70427315Y-55265320D01*
X70320763Y-55250000D01*
X70249237Y-55250000D01*
X70142685Y-55265320D01*
X70035000Y-55314498D01*
X70035000Y-54500000D01*
X69725696Y-54500000D01*
X69639353Y-54480293D01*
X69570112Y-54425074D01*
X69531685Y-54345282D01*
X69531685Y-54256718D01*
X69556502Y-54196241D01*
X69668846Y-54014796D01*
X69745837Y-53816060D01*
X69758187Y-53750000D01*
X68830581Y-53750000D01*
X68874308Y-53702500D01*
X72669706Y-53702500D01*
X72688854Y-53945807D01*
X72745826Y-54183104D01*
X72745830Y-54183119D01*
X72839221Y-54408587D01*
X72839224Y-54408592D01*
X72966742Y-54616681D01*
X73125240Y-54802259D01*
X73310818Y-54960757D01*
X73310820Y-54960758D01*
X73310821Y-54960759D01*
X73365690Y-54994383D01*
X73518907Y-55088275D01*
X73518912Y-55088278D01*
X73744380Y-55181669D01*
X73744382Y-55181669D01*
X73744388Y-55181672D01*
X73888452Y-55216259D01*
X73981692Y-55238645D01*
X73981694Y-55238645D01*
X73981698Y-55238646D01*
X74225000Y-55257794D01*
X74468302Y-55238646D01*
X74468305Y-55238645D01*
X74468307Y-55238645D01*
X74510728Y-55228460D01*
X74705612Y-55181672D01*
X74862730Y-55116592D01*
X74931087Y-55088278D01*
X74931092Y-55088275D01*
X75139179Y-54960759D01*
X75324759Y-54802259D01*
X75483259Y-54616679D01*
X75610777Y-54408589D01*
X75637000Y-54345282D01*
X75704169Y-54183119D01*
X75704168Y-54183119D01*
X75704172Y-54183112D01*
X75761146Y-53945802D01*
X75780294Y-53702500D01*
X75761146Y-53459198D01*
X75704172Y-53221888D01*
X75692950Y-53194795D01*
X75610778Y-52996412D01*
X75610775Y-52996407D01*
X75537063Y-52876121D01*
X75535926Y-52874266D01*
X75507616Y-52790352D01*
X75518518Y-52702462D01*
X75566474Y-52628007D01*
X75641987Y-52581732D01*
X75672842Y-52574005D01*
X75813823Y-52550480D01*
X76029426Y-52476463D01*
X76229906Y-52367969D01*
X76409794Y-52227956D01*
X76414055Y-52223328D01*
X76564173Y-52060256D01*
X76564173Y-52060255D01*
X76564183Y-52060245D01*
X76688862Y-51869409D01*
X76780430Y-51660655D01*
X76836390Y-51439676D01*
X76847355Y-51307352D01*
X76855214Y-51212504D01*
X76855214Y-51212495D01*
X76836391Y-50985331D01*
X76836390Y-50985328D01*
X76836390Y-50985324D01*
X76780430Y-50764345D01*
X76759882Y-50717500D01*
X76688864Y-50555594D01*
X76688862Y-50555592D01*
X76688862Y-50555591D01*
X76564183Y-50364755D01*
X76564177Y-50364749D01*
X76564173Y-50364743D01*
X76409800Y-50197049D01*
X76409793Y-50197043D01*
X76229906Y-50057031D01*
X76229903Y-50057029D01*
X76029426Y-49948537D01*
X75813827Y-49874521D01*
X75813826Y-49874520D01*
X75588980Y-49837000D01*
X75588977Y-49837000D01*
X75361023Y-49837000D01*
X75361019Y-49837000D01*
X75136173Y-49874520D01*
X75136172Y-49874521D01*
X74920573Y-49948537D01*
X74720096Y-50057029D01*
X74720093Y-50057031D01*
X74540206Y-50197043D01*
X74540199Y-50197049D01*
X74385826Y-50364743D01*
X74385817Y-50364755D01*
X74261137Y-50555592D01*
X74261135Y-50555594D01*
X74169570Y-50764342D01*
X74113608Y-50985331D01*
X74094786Y-51212495D01*
X74094786Y-51212504D01*
X74113608Y-51439668D01*
X74169570Y-51660657D01*
X74264444Y-51876947D01*
X74262114Y-51877968D01*
X74281993Y-51949375D01*
X74266375Y-52036550D01*
X74214480Y-52108316D01*
X74136585Y-52150458D01*
X74098829Y-52157135D01*
X73981698Y-52166354D01*
X73981695Y-52166354D01*
X73981691Y-52166355D01*
X73744395Y-52223326D01*
X73744380Y-52223330D01*
X73518912Y-52316721D01*
X73518907Y-52316724D01*
X73310818Y-52444242D01*
X73125240Y-52602740D01*
X72966742Y-52788318D01*
X72839224Y-52996407D01*
X72839221Y-52996412D01*
X72745830Y-53221880D01*
X72745826Y-53221895D01*
X72688854Y-53459192D01*
X72669706Y-53702500D01*
X68874308Y-53702500D01*
X68882060Y-53694079D01*
X68928982Y-53587108D01*
X68938628Y-53470698D01*
X68909953Y-53357462D01*
X68846064Y-53259673D01*
X68833636Y-53250000D01*
X69758186Y-53250000D01*
X69745837Y-53183939D01*
X69668846Y-52985203D01*
X69668845Y-52985200D01*
X69556653Y-52804002D01*
X69556647Y-52803995D01*
X69413070Y-52646500D01*
X69413065Y-52646495D01*
X69242991Y-52518060D01*
X69052207Y-52423062D01*
X69052205Y-52423061D01*
X68847223Y-52364739D01*
X68847212Y-52364737D01*
X68688168Y-52350000D01*
X67935000Y-52350000D01*
X67935000Y-53150000D01*
X67435000Y-53150000D01*
X67435000Y-52350000D01*
X66681832Y-52350000D01*
X66522787Y-52364737D01*
X66522776Y-52364739D01*
X66317794Y-52423061D01*
X66317792Y-52423062D01*
X66127008Y-52518060D01*
X65956934Y-52646495D01*
X65956929Y-52646500D01*
X65813352Y-52803995D01*
X65813346Y-52804003D01*
X65768693Y-52876121D01*
X65706484Y-52939157D01*
X65623086Y-52968958D01*
X65535016Y-52959623D01*
X65459718Y-52913001D01*
X65412105Y-52838325D01*
X65400500Y-52771361D01*
X65400500Y-48849500D01*
X65420207Y-48763157D01*
X65475426Y-48693916D01*
X65555218Y-48655489D01*
X65599500Y-48650500D01*
X111900500Y-48650500D01*
X111986843Y-48670207D01*
G37*
%TD.AperFunction*%
%TA.AperFunction,Conductor*%
G36*
X67935000Y-54650000D02*
G01*
X68393721Y-54650000D01*
X68480064Y-54669707D01*
X68549305Y-54724926D01*
X68587732Y-54804718D01*
X68587732Y-54893282D01*
X68556338Y-54958480D01*
X68558684Y-54960029D01*
X68429806Y-55155271D01*
X68429805Y-55155272D01*
X68341376Y-55362163D01*
X68309916Y-55499999D01*
X68309917Y-55500000D01*
X69851314Y-55500000D01*
X69825507Y-55540156D01*
X69785000Y-55678111D01*
X69785000Y-55821889D01*
X69825507Y-55959844D01*
X69851314Y-56000000D01*
X68307449Y-56000000D01*
X68311415Y-56029279D01*
X68372546Y-56217421D01*
X68380485Y-56305628D01*
X68349366Y-56388544D01*
X68285352Y-56449747D01*
X68201123Y-56477114D01*
X68113362Y-56465225D01*
X68070242Y-56442690D01*
X68002162Y-56395698D01*
X68002160Y-56395697D01*
X68002159Y-56395696D01*
X67848329Y-56337356D01*
X67725981Y-56322500D01*
X67725980Y-56322500D01*
X67644020Y-56322500D01*
X67644019Y-56322500D01*
X67521670Y-56337356D01*
X67367840Y-56395696D01*
X67367833Y-56395700D01*
X67232436Y-56489157D01*
X67232433Y-56489160D01*
X67123333Y-56612307D01*
X67046874Y-56757989D01*
X67046872Y-56757994D01*
X67007500Y-56917734D01*
X67007500Y-57082265D01*
X67046872Y-57242005D01*
X67046874Y-57242010D01*
X67123333Y-57387692D01*
X67232433Y-57510839D01*
X67232436Y-57510842D01*
X67367833Y-57604299D01*
X67367840Y-57604303D01*
X67521670Y-57662643D01*
X67521673Y-57662644D01*
X67624397Y-57675117D01*
X67644019Y-57677500D01*
X67644020Y-57677500D01*
X67725981Y-57677500D01*
X67742890Y-57675446D01*
X67848327Y-57662644D01*
X68002162Y-57604302D01*
X68072274Y-57555907D01*
X68154523Y-57523079D01*
X68242876Y-57529188D01*
X68319828Y-57573027D01*
X68370138Y-57645913D01*
X68383842Y-57733410D01*
X68368303Y-57797892D01*
X68340896Y-57862014D01*
X68290808Y-58081465D01*
X68280710Y-58306329D01*
X68280710Y-58306330D01*
X68310925Y-58529387D01*
X68310926Y-58529391D01*
X68310927Y-58529394D01*
X68380485Y-58743470D01*
X68487147Y-58941679D01*
X68487149Y-58941682D01*
X68633064Y-59124654D01*
X68631745Y-59125705D01*
X68671450Y-59192155D01*
X68679392Y-59280361D01*
X68648276Y-59363278D01*
X68626029Y-59391177D01*
X68553369Y-59467174D01*
X68553365Y-59467178D01*
X68429366Y-59655028D01*
X68340896Y-59862014D01*
X68290808Y-60081465D01*
X68283440Y-60245548D01*
X68280710Y-60306330D01*
X68310925Y-60529387D01*
X68310926Y-60529391D01*
X68310927Y-60529394D01*
X68371869Y-60716953D01*
X68379808Y-60805160D01*
X68348689Y-60888076D01*
X68284676Y-60949279D01*
X68200447Y-60976647D01*
X68112686Y-60964759D01*
X68069565Y-60942222D01*
X68002166Y-60895700D01*
X68002159Y-60895696D01*
X67848329Y-60837356D01*
X67725981Y-60822500D01*
X67725980Y-60822500D01*
X67644020Y-60822500D01*
X67644019Y-60822500D01*
X67521670Y-60837356D01*
X67367840Y-60895696D01*
X67367833Y-60895700D01*
X67232436Y-60989157D01*
X67232433Y-60989160D01*
X67123333Y-61112307D01*
X67046874Y-61257989D01*
X67046872Y-61257994D01*
X67007500Y-61417734D01*
X67007500Y-61582265D01*
X67046872Y-61742005D01*
X67046874Y-61742010D01*
X67123333Y-61887692D01*
X67232433Y-62010839D01*
X67232436Y-62010842D01*
X67367833Y-62104299D01*
X67367840Y-62104303D01*
X67521670Y-62162643D01*
X67521673Y-62162644D01*
X67624397Y-62175117D01*
X67644019Y-62177500D01*
X67644020Y-62177500D01*
X67725981Y-62177500D01*
X67742890Y-62175446D01*
X67848327Y-62162644D01*
X68002162Y-62104302D01*
X68072274Y-62055907D01*
X68154523Y-62023079D01*
X68242876Y-62029188D01*
X68319828Y-62073027D01*
X68370138Y-62145913D01*
X68383842Y-62233410D01*
X68368303Y-62297892D01*
X68340896Y-62362014D01*
X68290808Y-62581465D01*
X68281793Y-62782211D01*
X68280710Y-62806330D01*
X68310925Y-63029387D01*
X68310926Y-63029391D01*
X68310927Y-63029394D01*
X68380485Y-63243470D01*
X68435106Y-63344971D01*
X68487148Y-63441681D01*
X68555130Y-63526927D01*
X68593556Y-63606718D01*
X68593556Y-63695281D01*
X68555130Y-63775074D01*
X68485888Y-63830293D01*
X68399546Y-63850000D01*
X67935000Y-63850000D01*
X67935000Y-64650000D01*
X67435000Y-64650000D01*
X67435000Y-63850000D01*
X66681832Y-63850000D01*
X66522787Y-63864737D01*
X66522776Y-63864739D01*
X66317794Y-63923061D01*
X66317792Y-63923062D01*
X66127008Y-64018060D01*
X65956934Y-64146495D01*
X65956929Y-64146500D01*
X65813352Y-64303995D01*
X65813346Y-64304003D01*
X65768693Y-64376121D01*
X65706484Y-64439157D01*
X65623086Y-64468958D01*
X65535016Y-64459623D01*
X65459718Y-64413001D01*
X65412105Y-64338325D01*
X65400500Y-64271361D01*
X65400500Y-54228638D01*
X65420207Y-54142295D01*
X65475426Y-54073054D01*
X65555218Y-54034627D01*
X65643782Y-54034627D01*
X65723574Y-54073054D01*
X65768694Y-54123879D01*
X65813348Y-54196000D01*
X65813352Y-54196004D01*
X65956929Y-54353499D01*
X65956934Y-54353504D01*
X66127008Y-54481939D01*
X66317792Y-54576937D01*
X66317794Y-54576938D01*
X66522776Y-54635260D01*
X66522787Y-54635262D01*
X66681832Y-54650000D01*
X67435000Y-54650000D01*
X67435000Y-53850000D01*
X67935000Y-53850000D01*
X67935000Y-54650000D01*
G37*
%TD.AperFunction*%
%TD*%
M02*
