%TF.GenerationSoftware,KiCad,Pcbnew,7.0.9*%
%TF.CreationDate,2024-04-25T13:42:10+02:00*%
%TF.ProjectId,UsbLoad,5573624c-6f61-4642-9e6b-696361645f70,rev?*%
%TF.SameCoordinates,Original*%
%TF.FileFunction,Legend,Top*%
%TF.FilePolarity,Positive*%
%FSLAX46Y46*%
G04 Gerber Fmt 4.6, Leading zero omitted, Abs format (unit mm)*
G04 Created by KiCad (PCBNEW 7.0.9) date 2024-04-25 13:42:10*
%MOMM*%
%LPD*%
G01*
G04 APERTURE LIST*
%ADD10C,0.150000*%
%ADD11C,0.120000*%
G04 APERTURE END LIST*
D10*
X83511905Y-52954819D02*
X83511905Y-51954819D01*
X83511905Y-51954819D02*
X83750000Y-51954819D01*
X83750000Y-51954819D02*
X83892857Y-52002438D01*
X83892857Y-52002438D02*
X83988095Y-52097676D01*
X83988095Y-52097676D02*
X84035714Y-52192914D01*
X84035714Y-52192914D02*
X84083333Y-52383390D01*
X84083333Y-52383390D02*
X84083333Y-52526247D01*
X84083333Y-52526247D02*
X84035714Y-52716723D01*
X84035714Y-52716723D02*
X83988095Y-52811961D01*
X83988095Y-52811961D02*
X83892857Y-52907200D01*
X83892857Y-52907200D02*
X83750000Y-52954819D01*
X83750000Y-52954819D02*
X83511905Y-52954819D01*
X84464286Y-52050057D02*
X84511905Y-52002438D01*
X84511905Y-52002438D02*
X84607143Y-51954819D01*
X84607143Y-51954819D02*
X84845238Y-51954819D01*
X84845238Y-51954819D02*
X84940476Y-52002438D01*
X84940476Y-52002438D02*
X84988095Y-52050057D01*
X84988095Y-52050057D02*
X85035714Y-52145295D01*
X85035714Y-52145295D02*
X85035714Y-52240533D01*
X85035714Y-52240533D02*
X84988095Y-52383390D01*
X84988095Y-52383390D02*
X84416667Y-52954819D01*
X84416667Y-52954819D02*
X85035714Y-52954819D01*
X85583333Y-56204819D02*
X85250000Y-55728628D01*
X85011905Y-56204819D02*
X85011905Y-55204819D01*
X85011905Y-55204819D02*
X85392857Y-55204819D01*
X85392857Y-55204819D02*
X85488095Y-55252438D01*
X85488095Y-55252438D02*
X85535714Y-55300057D01*
X85535714Y-55300057D02*
X85583333Y-55395295D01*
X85583333Y-55395295D02*
X85583333Y-55538152D01*
X85583333Y-55538152D02*
X85535714Y-55633390D01*
X85535714Y-55633390D02*
X85488095Y-55681009D01*
X85488095Y-55681009D02*
X85392857Y-55728628D01*
X85392857Y-55728628D02*
X85011905Y-55728628D01*
X86440476Y-55204819D02*
X86250000Y-55204819D01*
X86250000Y-55204819D02*
X86154762Y-55252438D01*
X86154762Y-55252438D02*
X86107143Y-55300057D01*
X86107143Y-55300057D02*
X86011905Y-55442914D01*
X86011905Y-55442914D02*
X85964286Y-55633390D01*
X85964286Y-55633390D02*
X85964286Y-56014342D01*
X85964286Y-56014342D02*
X86011905Y-56109580D01*
X86011905Y-56109580D02*
X86059524Y-56157200D01*
X86059524Y-56157200D02*
X86154762Y-56204819D01*
X86154762Y-56204819D02*
X86345238Y-56204819D01*
X86345238Y-56204819D02*
X86440476Y-56157200D01*
X86440476Y-56157200D02*
X86488095Y-56109580D01*
X86488095Y-56109580D02*
X86535714Y-56014342D01*
X86535714Y-56014342D02*
X86535714Y-55776247D01*
X86535714Y-55776247D02*
X86488095Y-55681009D01*
X86488095Y-55681009D02*
X86440476Y-55633390D01*
X86440476Y-55633390D02*
X86345238Y-55585771D01*
X86345238Y-55585771D02*
X86154762Y-55585771D01*
X86154762Y-55585771D02*
X86059524Y-55633390D01*
X86059524Y-55633390D02*
X86011905Y-55681009D01*
X86011905Y-55681009D02*
X85964286Y-55776247D01*
X75833333Y-56859580D02*
X75785714Y-56907200D01*
X75785714Y-56907200D02*
X75642857Y-56954819D01*
X75642857Y-56954819D02*
X75547619Y-56954819D01*
X75547619Y-56954819D02*
X75404762Y-56907200D01*
X75404762Y-56907200D02*
X75309524Y-56811961D01*
X75309524Y-56811961D02*
X75261905Y-56716723D01*
X75261905Y-56716723D02*
X75214286Y-56526247D01*
X75214286Y-56526247D02*
X75214286Y-56383390D01*
X75214286Y-56383390D02*
X75261905Y-56192914D01*
X75261905Y-56192914D02*
X75309524Y-56097676D01*
X75309524Y-56097676D02*
X75404762Y-56002438D01*
X75404762Y-56002438D02*
X75547619Y-55954819D01*
X75547619Y-55954819D02*
X75642857Y-55954819D01*
X75642857Y-55954819D02*
X75785714Y-56002438D01*
X75785714Y-56002438D02*
X75833333Y-56050057D01*
X76785714Y-56954819D02*
X76214286Y-56954819D01*
X76500000Y-56954819D02*
X76500000Y-55954819D01*
X76500000Y-55954819D02*
X76404762Y-56097676D01*
X76404762Y-56097676D02*
X76309524Y-56192914D01*
X76309524Y-56192914D02*
X76214286Y-56240533D01*
X74913333Y-66074819D02*
X74580000Y-65598628D01*
X74341905Y-66074819D02*
X74341905Y-65074819D01*
X74341905Y-65074819D02*
X74722857Y-65074819D01*
X74722857Y-65074819D02*
X74818095Y-65122438D01*
X74818095Y-65122438D02*
X74865714Y-65170057D01*
X74865714Y-65170057D02*
X74913333Y-65265295D01*
X74913333Y-65265295D02*
X74913333Y-65408152D01*
X74913333Y-65408152D02*
X74865714Y-65503390D01*
X74865714Y-65503390D02*
X74818095Y-65551009D01*
X74818095Y-65551009D02*
X74722857Y-65598628D01*
X74722857Y-65598628D02*
X74341905Y-65598628D01*
X75865714Y-66074819D02*
X75294286Y-66074819D01*
X75580000Y-66074819D02*
X75580000Y-65074819D01*
X75580000Y-65074819D02*
X75484762Y-65217676D01*
X75484762Y-65217676D02*
X75389524Y-65312914D01*
X75389524Y-65312914D02*
X75294286Y-65360533D01*
X77488095Y-58054819D02*
X77488095Y-58864342D01*
X77488095Y-58864342D02*
X77535714Y-58959580D01*
X77535714Y-58959580D02*
X77583333Y-59007200D01*
X77583333Y-59007200D02*
X77678571Y-59054819D01*
X77678571Y-59054819D02*
X77869047Y-59054819D01*
X77869047Y-59054819D02*
X77964285Y-59007200D01*
X77964285Y-59007200D02*
X78011904Y-58959580D01*
X78011904Y-58959580D02*
X78059523Y-58864342D01*
X78059523Y-58864342D02*
X78059523Y-58054819D01*
X79059523Y-59054819D02*
X78488095Y-59054819D01*
X78773809Y-59054819D02*
X78773809Y-58054819D01*
X78773809Y-58054819D02*
X78678571Y-58197676D01*
X78678571Y-58197676D02*
X78583333Y-58292914D01*
X78583333Y-58292914D02*
X78488095Y-58340533D01*
X68166666Y-66704819D02*
X68166666Y-67419104D01*
X68166666Y-67419104D02*
X68119047Y-67561961D01*
X68119047Y-67561961D02*
X68023809Y-67657200D01*
X68023809Y-67657200D02*
X67880952Y-67704819D01*
X67880952Y-67704819D02*
X67785714Y-67704819D01*
X69166666Y-67704819D02*
X68595238Y-67704819D01*
X68880952Y-67704819D02*
X68880952Y-66704819D01*
X68880952Y-66704819D02*
X68785714Y-66847676D01*
X68785714Y-66847676D02*
X68690476Y-66942914D01*
X68690476Y-66942914D02*
X68595238Y-66990533D01*
X81833333Y-66024819D02*
X81500000Y-65548628D01*
X81261905Y-66024819D02*
X81261905Y-65024819D01*
X81261905Y-65024819D02*
X81642857Y-65024819D01*
X81642857Y-65024819D02*
X81738095Y-65072438D01*
X81738095Y-65072438D02*
X81785714Y-65120057D01*
X81785714Y-65120057D02*
X81833333Y-65215295D01*
X81833333Y-65215295D02*
X81833333Y-65358152D01*
X81833333Y-65358152D02*
X81785714Y-65453390D01*
X81785714Y-65453390D02*
X81738095Y-65501009D01*
X81738095Y-65501009D02*
X81642857Y-65548628D01*
X81642857Y-65548628D02*
X81261905Y-65548628D01*
X82738095Y-65024819D02*
X82261905Y-65024819D01*
X82261905Y-65024819D02*
X82214286Y-65501009D01*
X82214286Y-65501009D02*
X82261905Y-65453390D01*
X82261905Y-65453390D02*
X82357143Y-65405771D01*
X82357143Y-65405771D02*
X82595238Y-65405771D01*
X82595238Y-65405771D02*
X82690476Y-65453390D01*
X82690476Y-65453390D02*
X82738095Y-65501009D01*
X82738095Y-65501009D02*
X82785714Y-65596247D01*
X82785714Y-65596247D02*
X82785714Y-65834342D01*
X82785714Y-65834342D02*
X82738095Y-65929580D01*
X82738095Y-65929580D02*
X82690476Y-65977200D01*
X82690476Y-65977200D02*
X82595238Y-66024819D01*
X82595238Y-66024819D02*
X82357143Y-66024819D01*
X82357143Y-66024819D02*
X82261905Y-65977200D01*
X82261905Y-65977200D02*
X82214286Y-65929580D01*
X77583333Y-66074819D02*
X77250000Y-65598628D01*
X77011905Y-66074819D02*
X77011905Y-65074819D01*
X77011905Y-65074819D02*
X77392857Y-65074819D01*
X77392857Y-65074819D02*
X77488095Y-65122438D01*
X77488095Y-65122438D02*
X77535714Y-65170057D01*
X77535714Y-65170057D02*
X77583333Y-65265295D01*
X77583333Y-65265295D02*
X77583333Y-65408152D01*
X77583333Y-65408152D02*
X77535714Y-65503390D01*
X77535714Y-65503390D02*
X77488095Y-65551009D01*
X77488095Y-65551009D02*
X77392857Y-65598628D01*
X77392857Y-65598628D02*
X77011905Y-65598628D01*
X77964286Y-65170057D02*
X78011905Y-65122438D01*
X78011905Y-65122438D02*
X78107143Y-65074819D01*
X78107143Y-65074819D02*
X78345238Y-65074819D01*
X78345238Y-65074819D02*
X78440476Y-65122438D01*
X78440476Y-65122438D02*
X78488095Y-65170057D01*
X78488095Y-65170057D02*
X78535714Y-65265295D01*
X78535714Y-65265295D02*
X78535714Y-65360533D01*
X78535714Y-65360533D02*
X78488095Y-65503390D01*
X78488095Y-65503390D02*
X77916667Y-66074819D01*
X77916667Y-66074819D02*
X78535714Y-66074819D01*
X91083333Y-64204819D02*
X90750000Y-63728628D01*
X90511905Y-64204819D02*
X90511905Y-63204819D01*
X90511905Y-63204819D02*
X90892857Y-63204819D01*
X90892857Y-63204819D02*
X90988095Y-63252438D01*
X90988095Y-63252438D02*
X91035714Y-63300057D01*
X91035714Y-63300057D02*
X91083333Y-63395295D01*
X91083333Y-63395295D02*
X91083333Y-63538152D01*
X91083333Y-63538152D02*
X91035714Y-63633390D01*
X91035714Y-63633390D02*
X90988095Y-63681009D01*
X90988095Y-63681009D02*
X90892857Y-63728628D01*
X90892857Y-63728628D02*
X90511905Y-63728628D01*
X91416667Y-63204819D02*
X92035714Y-63204819D01*
X92035714Y-63204819D02*
X91702381Y-63585771D01*
X91702381Y-63585771D02*
X91845238Y-63585771D01*
X91845238Y-63585771D02*
X91940476Y-63633390D01*
X91940476Y-63633390D02*
X91988095Y-63681009D01*
X91988095Y-63681009D02*
X92035714Y-63776247D01*
X92035714Y-63776247D02*
X92035714Y-64014342D01*
X92035714Y-64014342D02*
X91988095Y-64109580D01*
X91988095Y-64109580D02*
X91940476Y-64157200D01*
X91940476Y-64157200D02*
X91845238Y-64204819D01*
X91845238Y-64204819D02*
X91559524Y-64204819D01*
X91559524Y-64204819D02*
X91464286Y-64157200D01*
X91464286Y-64157200D02*
X91416667Y-64109580D01*
X95654761Y-52050057D02*
X95559523Y-52002438D01*
X95559523Y-52002438D02*
X95464285Y-51907200D01*
X95464285Y-51907200D02*
X95321428Y-51764342D01*
X95321428Y-51764342D02*
X95226190Y-51716723D01*
X95226190Y-51716723D02*
X95130952Y-51716723D01*
X95178571Y-51954819D02*
X95083333Y-51907200D01*
X95083333Y-51907200D02*
X94988095Y-51811961D01*
X94988095Y-51811961D02*
X94940476Y-51621485D01*
X94940476Y-51621485D02*
X94940476Y-51288152D01*
X94940476Y-51288152D02*
X94988095Y-51097676D01*
X94988095Y-51097676D02*
X95083333Y-51002438D01*
X95083333Y-51002438D02*
X95178571Y-50954819D01*
X95178571Y-50954819D02*
X95369047Y-50954819D01*
X95369047Y-50954819D02*
X95464285Y-51002438D01*
X95464285Y-51002438D02*
X95559523Y-51097676D01*
X95559523Y-51097676D02*
X95607142Y-51288152D01*
X95607142Y-51288152D02*
X95607142Y-51621485D01*
X95607142Y-51621485D02*
X95559523Y-51811961D01*
X95559523Y-51811961D02*
X95464285Y-51907200D01*
X95464285Y-51907200D02*
X95369047Y-51954819D01*
X95369047Y-51954819D02*
X95178571Y-51954819D01*
X96559523Y-51954819D02*
X95988095Y-51954819D01*
X96273809Y-51954819D02*
X96273809Y-50954819D01*
X96273809Y-50954819D02*
X96178571Y-51097676D01*
X96178571Y-51097676D02*
X96083333Y-51192914D01*
X96083333Y-51192914D02*
X95988095Y-51240533D01*
X84416666Y-66189819D02*
X84416666Y-66904104D01*
X84416666Y-66904104D02*
X84369047Y-67046961D01*
X84369047Y-67046961D02*
X84273809Y-67142200D01*
X84273809Y-67142200D02*
X84130952Y-67189819D01*
X84130952Y-67189819D02*
X84035714Y-67189819D01*
X84797619Y-66189819D02*
X85416666Y-66189819D01*
X85416666Y-66189819D02*
X85083333Y-66570771D01*
X85083333Y-66570771D02*
X85226190Y-66570771D01*
X85226190Y-66570771D02*
X85321428Y-66618390D01*
X85321428Y-66618390D02*
X85369047Y-66666009D01*
X85369047Y-66666009D02*
X85416666Y-66761247D01*
X85416666Y-66761247D02*
X85416666Y-66999342D01*
X85416666Y-66999342D02*
X85369047Y-67094580D01*
X85369047Y-67094580D02*
X85321428Y-67142200D01*
X85321428Y-67142200D02*
X85226190Y-67189819D01*
X85226190Y-67189819D02*
X84940476Y-67189819D01*
X84940476Y-67189819D02*
X84845238Y-67142200D01*
X84845238Y-67142200D02*
X84797619Y-67094580D01*
X92761905Y-67884819D02*
X92761905Y-66884819D01*
X92761905Y-66884819D02*
X93000000Y-66884819D01*
X93000000Y-66884819D02*
X93142857Y-66932438D01*
X93142857Y-66932438D02*
X93238095Y-67027676D01*
X93238095Y-67027676D02*
X93285714Y-67122914D01*
X93285714Y-67122914D02*
X93333333Y-67313390D01*
X93333333Y-67313390D02*
X93333333Y-67456247D01*
X93333333Y-67456247D02*
X93285714Y-67646723D01*
X93285714Y-67646723D02*
X93238095Y-67741961D01*
X93238095Y-67741961D02*
X93142857Y-67837200D01*
X93142857Y-67837200D02*
X93000000Y-67884819D01*
X93000000Y-67884819D02*
X92761905Y-67884819D01*
X94285714Y-67884819D02*
X93714286Y-67884819D01*
X94000000Y-67884819D02*
X94000000Y-66884819D01*
X94000000Y-66884819D02*
X93904762Y-67027676D01*
X93904762Y-67027676D02*
X93809524Y-67122914D01*
X93809524Y-67122914D02*
X93714286Y-67170533D01*
X76391667Y-53299700D02*
X76534524Y-53347319D01*
X76534524Y-53347319D02*
X76772619Y-53347319D01*
X76772619Y-53347319D02*
X76867857Y-53299700D01*
X76867857Y-53299700D02*
X76915476Y-53252080D01*
X76915476Y-53252080D02*
X76963095Y-53156842D01*
X76963095Y-53156842D02*
X76963095Y-53061604D01*
X76963095Y-53061604D02*
X76915476Y-52966366D01*
X76915476Y-52966366D02*
X76867857Y-52918747D01*
X76867857Y-52918747D02*
X76772619Y-52871128D01*
X76772619Y-52871128D02*
X76582143Y-52823509D01*
X76582143Y-52823509D02*
X76486905Y-52775890D01*
X76486905Y-52775890D02*
X76439286Y-52728271D01*
X76439286Y-52728271D02*
X76391667Y-52633033D01*
X76391667Y-52633033D02*
X76391667Y-52537795D01*
X76391667Y-52537795D02*
X76439286Y-52442557D01*
X76439286Y-52442557D02*
X76486905Y-52394938D01*
X76486905Y-52394938D02*
X76582143Y-52347319D01*
X76582143Y-52347319D02*
X76820238Y-52347319D01*
X76820238Y-52347319D02*
X76963095Y-52394938D01*
X77296429Y-52347319D02*
X77534524Y-53347319D01*
X77534524Y-53347319D02*
X77725000Y-52633033D01*
X77725000Y-52633033D02*
X77915476Y-53347319D01*
X77915476Y-53347319D02*
X78153572Y-52347319D01*
X79058333Y-53347319D02*
X78486905Y-53347319D01*
X78772619Y-53347319D02*
X78772619Y-52347319D01*
X78772619Y-52347319D02*
X78677381Y-52490176D01*
X78677381Y-52490176D02*
X78582143Y-52585414D01*
X78582143Y-52585414D02*
X78486905Y-52633033D01*
X89583333Y-67954819D02*
X89250000Y-67478628D01*
X89011905Y-67954819D02*
X89011905Y-66954819D01*
X89011905Y-66954819D02*
X89392857Y-66954819D01*
X89392857Y-66954819D02*
X89488095Y-67002438D01*
X89488095Y-67002438D02*
X89535714Y-67050057D01*
X89535714Y-67050057D02*
X89583333Y-67145295D01*
X89583333Y-67145295D02*
X89583333Y-67288152D01*
X89583333Y-67288152D02*
X89535714Y-67383390D01*
X89535714Y-67383390D02*
X89488095Y-67431009D01*
X89488095Y-67431009D02*
X89392857Y-67478628D01*
X89392857Y-67478628D02*
X89011905Y-67478628D01*
X90440476Y-67288152D02*
X90440476Y-67954819D01*
X90202381Y-66907200D02*
X89964286Y-67621485D01*
X89964286Y-67621485D02*
X90583333Y-67621485D01*
X105416666Y-67454819D02*
X105416666Y-68169104D01*
X105416666Y-68169104D02*
X105369047Y-68311961D01*
X105369047Y-68311961D02*
X105273809Y-68407200D01*
X105273809Y-68407200D02*
X105130952Y-68454819D01*
X105130952Y-68454819D02*
X105035714Y-68454819D01*
X105845238Y-67550057D02*
X105892857Y-67502438D01*
X105892857Y-67502438D02*
X105988095Y-67454819D01*
X105988095Y-67454819D02*
X106226190Y-67454819D01*
X106226190Y-67454819D02*
X106321428Y-67502438D01*
X106321428Y-67502438D02*
X106369047Y-67550057D01*
X106369047Y-67550057D02*
X106416666Y-67645295D01*
X106416666Y-67645295D02*
X106416666Y-67740533D01*
X106416666Y-67740533D02*
X106369047Y-67883390D01*
X106369047Y-67883390D02*
X105797619Y-68454819D01*
X105797619Y-68454819D02*
X106416666Y-68454819D01*
D11*
%TO.C,D2*%
X83515000Y-50265000D02*
X83515000Y-51735000D01*
X83515000Y-51735000D02*
X85800000Y-51735000D01*
X85800000Y-50265000D02*
X83515000Y-50265000D01*
%TO.C,R6*%
X84762742Y-53477500D02*
X85237258Y-53477500D01*
X84762742Y-54522500D02*
X85237258Y-54522500D01*
%TO.C,C1*%
X76237258Y-58522500D02*
X75762742Y-58522500D01*
X76237258Y-57477500D02*
X75762742Y-57477500D01*
%TO.C,R1*%
X74842742Y-66527500D02*
X75317258Y-66527500D01*
X74842742Y-67572500D02*
X75317258Y-67572500D01*
%TO.C,U1*%
X78250000Y-59440000D02*
X74800000Y-59440000D01*
X78250000Y-59440000D02*
X80200000Y-59440000D01*
X78250000Y-64560000D02*
X76300000Y-64560000D01*
X78250000Y-64560000D02*
X80200000Y-64560000D01*
%TO.C,J1*%
X71710000Y-64000000D02*
X71710000Y-63540000D01*
X71710000Y-64000000D02*
X69610000Y-64000000D01*
X71230000Y-54500000D02*
X69610000Y-54500000D01*
X69610000Y-65040000D02*
X69610000Y-64000000D01*
X69610000Y-54500000D02*
X69610000Y-53460000D01*
%TO.C,R5*%
X81762742Y-66477500D02*
X82237258Y-66477500D01*
X81762742Y-67522500D02*
X82237258Y-67522500D01*
%TO.C,R2*%
X78272742Y-66527500D02*
X78747258Y-66527500D01*
X78272742Y-67572500D02*
X78747258Y-67572500D01*
%TO.C,R3*%
X89722936Y-60140000D02*
X92777064Y-60140000D01*
X89722936Y-62860000D02*
X92777064Y-62860000D01*
%TO.C,Q1*%
X87590000Y-58600000D02*
X87590000Y-52590000D01*
X94410000Y-56350000D02*
X94410000Y-52590000D01*
X87590000Y-52590000D02*
X88850000Y-52590000D01*
X94410000Y-52590000D02*
X93150000Y-52590000D01*
%TO.C,J3*%
X83445000Y-60480000D02*
X83445000Y-65620000D01*
X83445000Y-60480000D02*
X86105000Y-60480000D01*
X83445000Y-65620000D02*
X86105000Y-65620000D01*
X84775000Y-57880000D02*
X86105000Y-57880000D01*
X86105000Y-57880000D02*
X86105000Y-59210000D01*
X86105000Y-60480000D02*
X86105000Y-65620000D01*
%TO.C,D1*%
X94985000Y-66735000D02*
X94985000Y-65265000D01*
X94985000Y-65265000D02*
X92700000Y-65265000D01*
X92700000Y-66735000D02*
X94985000Y-66735000D01*
%TO.C,SW1*%
X73865000Y-48512500D02*
X73865000Y-52412500D01*
X73865000Y-48512500D02*
X81585000Y-48512500D01*
X73865000Y-55012500D02*
X73865000Y-55522500D01*
X73865000Y-55522500D02*
X74385000Y-55522500D01*
X74385000Y-52182500D02*
X74385000Y-52412500D01*
X74385000Y-52182500D02*
X74925000Y-52182500D01*
X74385000Y-55012500D02*
X74385000Y-55522500D01*
X76025000Y-52182500D02*
X79425000Y-52182500D01*
X80525000Y-52182500D02*
X81065000Y-52182500D01*
X81065000Y-52182500D02*
X81065000Y-52412500D01*
X81065000Y-55012500D02*
X81065000Y-55522500D01*
X81065000Y-55522500D02*
X81585000Y-55522500D01*
X81585000Y-48512500D02*
X81585000Y-52412500D01*
X81585000Y-55012500D02*
X81585000Y-55522500D01*
%TO.C,R4*%
X89512742Y-65477500D02*
X89987258Y-65477500D01*
X89512742Y-66522500D02*
X89987258Y-66522500D01*
%TO.C,J2*%
X97902500Y-66610000D02*
X99882500Y-66610000D01*
X97902500Y-66610000D02*
X97902500Y-51890000D01*
X103582500Y-66610000D02*
X112122500Y-66610000D01*
X112122500Y-66610000D02*
X112122500Y-51890000D01*
X97022500Y-63250000D02*
X97522500Y-62750000D01*
X97522500Y-62750000D02*
X97022500Y-62250000D01*
X97022500Y-62250000D02*
X97022500Y-63250000D01*
X99882500Y-51890000D02*
X97902500Y-51890000D01*
X103582500Y-51890000D02*
X112122500Y-51890000D01*
%TD*%
M02*
